<svg fill='white' xmlns="http://www.w3.org/2000/svg" viewBox="0 0 70 83"><symbol xmlns="http://www.w3.org/2000/svg" viewBox="0 0 70 83" id="ef5ae25b-e2dd-4123-9890-3bd5f162a42f">
  <path d="M1493.87044,225.469145 L1505.21286,239.091627 C1505.72149,239.702496 1506,240.472266 1506,241.267162 L1506,264.670141 C1506,265.465032 1505.72149,266.234798 1505.21287,266.845665 L1473.61303,304.798038 C1472.41152,306.241087 1470.26768,306.436893 1468.82463,305.235384 C1468.66581,305.103149 1468.51938,304.95671 1468.38716,304.797884 L1436.787,266.84058 C1436.27846,266.229736 1436,265.460032 1436,264.66521 L1436,241.267162 C1436,240.472266 1436.27851,239.702496 1436.78714,239.091627 L1448.12956,225.469145 C1449.33108,224.026101 1451.47492,223.830303 1452.91796,225.031818 C1452.97987,225.083368 1453.03993,225.137103 1453.09803,225.19292 L1468.6444,240.129572 C1469.96032,241.393891 1472.03968,241.393891 1473.3556,240.129572 L1488.90197,225.19292 C1490.25604,223.891955 1492.40837,223.935006 1493.70934,225.289076 C1493.76515,225.347171 1493.81889,225.407232 1493.87044,225.469145 Z" transform="translate(-1436 -223.8)"></path>
</symbol><use href="#ef5ae25b-e2dd-4123-9890-3bd5f162a42f"></use></svg>