<svg xmlns:xlink="http://www.w3.org/1999/xlink" xmlns="http://www.w3.org/2000/svg" role="img" alt="Globe icon" width="30"  height="30" ><defs><symbol viewBox="0 0 24 24" id="globe">
  <path fill="white" fill-rule="evenodd" d="M12.02,0 C18.634,0.011 24,5.383 24,12 C24,18.623 18.624,24 12,24 C5.377,24 0,18.623 0,12 C0,5.383 5.367,0.011 11.981,0 L12.02,0 Z M15.714,16 L8.287,16 C8.926,20.266 10.529,23 12,23 C13.472,23 15.075,20.266 15.714,16 M22.249,16 L16.726,16 C16.3,18.985 15.405,21.402 14.241,22.771 C17.91,22.011 20.912,19.421 22.249,16 M7.275,16 L1.751,16 C3.089,19.421 6.091,22.011 9.76,22.771 C8.596,21.402 7.701,18.985 7.275,16 M7.152,9 L1.416,9 C1.085,10.166 0.675,12.389 1.416,15 L7.152,15 C6.964,13.186 6.937,11.075 7.152,9 M15.843,9 L8.158,9 C7.963,10.8 7.933,12.927 8.158,15 L15.843,15 C16.039,13.189 16.067,11.07 15.843,9 M22.585,9 L16.849,9 C16.911,9.592 17.157,12.019 16.849,15 L22.585,15 C23.326,12.388 22.916,10.165 22.585,9 M9.76,1.229 C6.091,1.989 3.089,4.579 1.751,8 L7.275,8 C7.701,5.015 8.596,2.597 9.76,1.229 M15.714,8 C15.075,3.734 13.472,1 12,1 C10.529,1 8.926,3.734 8.287,8 L15.714,8 Z M14.241,1.229 C15.405,2.597 16.3,5.015 16.726,8 L22.249,8 C20.912,4.579 17.91,1.989 14.241,1.229"></path>
</symbol></defs><use xlink:href="#globe"></use></svg>